<?xml version="1.0" encoding="utf-8"?>
<!-- Leaf mark from user asset; background rect removed for tinting. Original: Adobe Illustrator export. -->
<svg version="1.1" xmlns="http://www.w3.org/2000/svg" viewBox="0 0 2200 2200" xml:space="preserve">
  <path fill="#000000" d="M1892.127,1087.966c0,441.642-282.628,823.727-783.923,823.727c-499.286,0-800.332-348.642-800.332-789.616c0-276.757,168.773-512.85,456.566-512.85c108.001,0,208.508,40.985,292.327,108.58c-128.636,106.709-119.622,288.71-72.299,414.931c30.283,80.723,89.034,146.968,133.93,220.583c61.835,101.403,97.265,229.143,52.901,339.309c402.369-251.591,464.158-604.664,344.105-848.829c-70.814-144.032-234.075-204.438-376.724-180.822c0,0,186.355,155.71,149.678,474.782c0-300.807-236.433-576.003-537.24-576.003c-143.159,0-298.853,61.821-401.051,214.737c112.515-279.279,373.711-488.187,733.842-488.187C1525.55,288.307,1892.127,621.786,1892.127,1087.966z"/>
</svg>
